<svg width="24" height="24" viewBox="0 0 24 24" fill="none" xmlns="http://www.w3.org/2000/svg">
<path d="M16.3466 14.7678C16.924 15.5438 17.5195 16.3378 18.1151 17.1318C16.924 18.5393 15.4443 19.4416 13.6578 19.8206C11.6727 20.2356 9.796 19.9289 7.97338 18.9183C9.59749 17.7092 11.1855 16.5182 12.7916 15.3272C13.1525 15.6701 13.4954 16.0129 13.8382 16.3378C14.2172 16.6987 14.0728 16.7167 14.5601 16.446C15.2277 16.0671 15.7872 15.5438 16.2203 14.9122C16.2383 14.8761 16.2744 14.84 16.2924 14.8039C16.2744 14.8039 16.2924 14.8039 16.3466 14.7678V14.7678ZM9.25463 16.3558C8.80348 16.6987 8.38843 17.0055 7.97338 17.3303C7.66661 17.5649 7.35983 17.7814 7.05305 18.016C6.92673 18.1243 6.8365 18.1243 6.69214 17.998C5.32067 16.7709 4.45447 15.255 4.12965 13.4505C3.80483 11.6278 4.09356 9.89545 4.95975 8.25329C4.9778 8.2172 5.01389 8.16307 5.03194 8.12697C5.03194 8.10893 5.04998 8.10893 5.08607 8.09088C6.27709 9.66086 7.48615 11.2308 8.67716 12.8008C8.64107 12.8549 8.62303 12.891 8.58694 12.9271C8.22602 13.3061 7.86511 13.685 7.48615 14.046C7.37787 14.1542 7.35983 14.2445 7.43201 14.3708C7.81097 15.0926 8.3343 15.6881 8.98394 16.1754C9.07417 16.2295 9.14635 16.2836 9.25463 16.3558V16.3558ZM15.9857 5.14944C15.4082 5.56449 14.8307 5.97954 14.2533 6.37654C13.2608 7.08032 12.2683 7.80215 11.2938 8.50593C11.1675 8.59616 11.0772 8.61421 10.969 8.48789C10.6441 8.14502 10.3013 7.83824 9.97645 7.49538C9.88622 7.40515 9.796 7.3871 9.66968 7.44124C8.89371 7.83824 8.28016 8.39766 7.77488 9.10144C7.73879 9.13753 7.7027 9.19167 7.66661 9.24581C7.37787 8.86685 7.10719 8.52398 6.8365 8.16307C6.54777 7.78411 6.27709 7.40515 6.0064 7.04423C5.91617 6.91791 5.89813 6.82768 6.02445 6.70136C7.41397 5.16748 9.12831 4.2652 11.1855 4.04865C12.8096 3.86819 14.3616 4.19301 15.8052 4.96898C15.8593 5.00507 15.9135 5.02312 15.9676 5.05921C15.9676 5.11334 15.9676 5.13139 15.9857 5.14944V5.14944ZM18.9271 15.9768C18.5482 15.4896 18.2053 15.0385 17.8624 14.5873C17.0684 13.5407 16.2744 12.476 15.4623 11.4293C15.3541 11.285 15.3541 11.1947 15.4804 11.0684C15.8233 10.7256 16.1481 10.3827 16.4909 10.0398C16.5812 9.94959 16.6173 9.85936 16.5451 9.73304C16.1481 8.97512 15.6067 8.34352 14.9029 7.83824C14.8488 7.80215 14.7947 7.74801 14.7225 7.71192C14.7766 7.65779 14.8307 7.6217 14.8668 7.5856C15.5526 7.06228 16.2383 6.557 16.924 6.03367C17.0323 5.94345 17.1225 5.90735 17.2489 6.03367C18.9632 7.5856 19.8835 9.51649 19.9738 11.8444C20.0099 13.1978 19.7031 14.4791 19.0895 15.6881C19.0354 15.7603 18.9812 15.8505 18.9271 15.9768V15.9768Z" fill="#142144"/>
</svg>
