<svg width="24" height="24" viewBox="0 0 24 24" fill="none" xmlns="http://www.w3.org/2000/svg">
<path d="M19.8222 6.66667C19.6444 5.91111 19.2889 5.42222 18.9333 5.06667C18.5778 4.71111 18.0444 4.35556 17.3333 4.17778C16.6222 4 14.9778 4 14.9778 4H9.06667C9.06667 4 7.42222 4 6.71111 4.17778C5.95556 4.35556 5.46667 4.71111 5.11111 5.06667C4.75556 5.42222 4.4 5.95556 4.22222 6.66667C4 7.37778 4 9.06667 4 9.06667V14.9778C4 14.9778 4 16.6222 4.17778 17.3333C4.35556 18.0889 4.71111 18.5778 5.06667 18.9333C5.42222 19.2889 5.95556 19.6444 6.66667 19.8222C7.37778 20 9.06667 20 9.06667 20H14.9778C14.9778 20 16.6222 20 17.3333 19.8222C18.0889 19.6444 18.5778 19.2889 18.9333 18.9333C19.2889 18.5778 19.6444 18.0444 19.8222 17.3333C20 16.6222 20 14.9333 20 14.9333V9.06667C20 9.06667 20 7.42222 19.8222 6.66667ZM9.37778 15.9111C8.66667 15.9111 8.08889 15.3333 8.08889 14.6222C8.08889 13.9111 8.66667 13.3333 9.37778 13.3333C10.0889 13.3333 10.6667 13.9111 10.6667 14.6222C10.7111 15.3333 10.0889 15.9111 9.37778 15.9111ZM9.37778 10.7111C8.66667 10.7111 8.08889 10.1333 8.08889 9.42222C8.08889 8.71111 8.66667 8.13333 9.37778 8.13333C10.0889 8.13333 10.6667 8.71111 10.6667 9.42222C10.7111 10.1333 10.0889 10.7111 9.37778 10.7111ZM14.6222 15.9111C13.9111 15.9111 13.3333 15.3333 13.3333 14.6222C13.3333 13.9111 13.9111 13.3333 14.6222 13.3333C15.3333 13.3333 15.9111 13.9111 15.9111 14.6222C15.9111 15.3333 15.3333 15.9111 14.6222 15.9111ZM14.6222 10.7111C13.9111 10.7111 13.3333 10.1333 13.3333 9.42222C13.3333 8.71111 13.9111 8.13333 14.6222 8.13333C15.3333 8.13333 15.9111 8.71111 15.9111 9.42222C15.9111 10.1333 15.3333 10.7111 14.6222 10.7111Z" fill="#142144"/>
</svg>
