<svg width="24" height="24" viewBox="0 0 24 24" fill="none" xmlns="http://www.w3.org/2000/svg">
<path d="M16.1809 17.5023C17.8332 16.343 18.9129 14.4239 18.9129 12.252C18.9129 10.0801 17.8332 8.15923 16.1809 7H20.9999V17.5023H16.1809Z" fill="#142144"/>
<path d="M6.09228 12.2503C6.09228 14.422 7.17199 16.3411 8.82425 17.5005H4V7H8.82436C7.17199 8.15923 6.09228 10.0783 6.09228 12.2503Z" fill="#142144"/>
<path fill-rule="evenodd" clip-rule="evenodd" d="M17.7466 12.2488C17.7466 15.1462 15.3975 17.4957 12.4998 17.4957C9.60214 17.4957 7.25317 15.1462 7.25317 12.2488C7.25317 9.3506 9.60214 7.00195 12.4998 7.00195C15.3975 7.00195 17.7466 9.3506 17.7466 12.2488ZM14.9573 12.4608L14.9607 12.4667L14.9633 12.4898L14.971 12.5172L14.9738 12.5232L14.9777 12.5403C15.025 12.7548 15.0059 12.9736 14.925 13.1736L14.9174 13.1907L14.9138 13.1984L14.9102 13.2069L14.9063 13.2146L14.9024 13.2231L14.898 13.2308L14.8938 13.2394L14.8894 13.2471L14.885 13.2556L14.8806 13.2633L14.8766 13.2727L14.872 13.2813L14.8669 13.2907L14.8619 13.2992L14.8569 13.3086L14.8515 13.318L14.8459 13.3274L14.8406 13.3368L14.8353 13.3471L14.8297 13.3565L14.8239 13.3667L14.8178 13.377L14.8117 13.3872L14.8051 13.3983L14.797 13.4103L14.7901 13.4206C14.5882 13.7223 14.2545 13.9641 13.8417 14.0701L13.6095 14.1308L13.8507 15.0692L13.2926 15.2128L13.0521 14.2778L12.6055 14.3923L12.8459 15.3273L12.2876 15.4709L12.0444 14.5376L10.8942 14.8333L10.8703 14.1257L11.2769 14.0205C11.3261 14.0077 11.3682 13.9761 11.3941 13.9325C11.4199 13.8889 11.4273 13.8368 11.4147 13.7872L10.7707 11.2813C10.7613 11.2446 10.7448 11.2104 10.7222 11.1805C10.71 11.1642 10.6962 11.1488 10.681 11.1352C10.6678 11.1241 10.6537 11.1138 10.6387 11.1053C10.6062 11.0856 10.5702 11.0736 10.5328 11.0685C10.4954 11.0625 10.4574 11.0651 10.4208 11.0745L9.95673 11.1933L9.80353 10.5976L10.9551 10.3019L10.7149 9.36684L11.2734 9.22411L11.5137 10.1557L11.9605 10.0403L11.7203 9.10531L12.2788 8.96258L12.5197 9.90101L12.615 9.87623C12.9812 9.78221 13.3452 9.82751 13.6317 9.97622L13.6465 9.98392L13.6563 9.9899L13.6661 9.99503L13.6754 10.0002L13.6843 10.0061L13.6929 10.0113L13.7016 10.0164L13.71 10.0215L13.7159 10.0249L13.7238 10.0292L13.7318 10.0343L13.7395 10.0395L13.7473 10.0437L13.755 10.0489L13.7627 10.0531L13.77 10.0583L13.7772 10.0625L13.7846 10.0677L13.7913 10.0728L13.7982 10.0779L13.8048 10.0822L13.8109 10.0873L13.817 10.0925L13.8238 10.0967L13.8297 10.1019L13.8428 10.1121C13.9915 10.2335 14.1002 10.3959 14.1566 10.5822L14.1643 10.6027L14.1703 10.6249L14.1757 10.6471L14.1784 10.6531L14.1821 10.6685C14.2248 10.86 14.2079 11.0548 14.1356 11.2317L14.1288 11.248L14.1256 11.2548L14.1222 11.2625L14.119 11.2693L14.1157 11.2762L14.1125 11.283L14.1087 11.2907L14.1051 11.2976L14.1014 11.3052L14.0972 11.3129L14.0931 11.3198L14.0885 11.3275L14.084 11.3352L14.0796 11.3437L14.0752 11.3523L14.0709 11.3599L14.0661 11.3685L14.0613 11.377L14.0561 11.3856L14.0507 11.3941L14.0451 11.4027L14.0394 11.4121L14.0336 11.4206L14.028 11.43L14.0209 11.4403L14.0147 11.4497C13.9934 11.4813 13.9706 11.5121 13.9466 11.542C13.9273 11.5659 13.9073 11.589 13.8864 11.6112C14.0535 11.6343 14.2155 11.6856 14.3655 11.7625L14.3814 11.771L14.3922 11.777L14.4029 11.783L14.4132 11.789L14.4233 11.795L14.4333 11.8001L14.4433 11.8061L14.4532 11.8112L14.4626 11.8172L14.4714 11.8223L14.4803 11.8283L14.4892 11.8343L14.498 11.8394L14.5065 11.8454L14.5146 11.8514L14.5228 11.8565L14.531 11.8625L14.5366 11.8685L14.5445 11.8736L14.5521 11.8787L14.557 11.883L14.5639 11.8881L14.5706 11.8924L14.5776 11.8984L14.5845 11.9035L14.5995 11.9155C14.7228 12.0155 14.8215 12.142 14.8903 12.2847C14.9148 12.336 14.9355 12.389 14.9522 12.4437L14.9573 12.4608ZM12.299 10.6335L11.6799 10.7907L11.9737 11.9257L12.5919 11.7651C12.7048 11.736 12.8063 11.6881 12.8925 11.6266C12.9639 11.5753 13.0247 11.5146 13.0727 11.4471L13.0768 11.442L13.081 11.436L13.0868 11.4283L13.0905 11.4223L13.0953 11.4146L13.099 11.4087L13.1039 11.4018L13.1075 11.3958L13.1128 11.3873L13.1167 11.3805L13.1196 11.3745L13.1235 11.3668L13.1274 11.3591L13.1309 11.3514L13.1343 11.3446L13.138 11.336C13.1796 11.2429 13.1907 11.1394 13.1691 11.0386L13.1653 11.0266L13.163 11.0147L13.158 10.9993L13.1555 10.9916C13.1412 10.9454 13.1215 10.9035 13.0963 10.8651C13.0661 10.8189 13.0283 10.7788 12.9841 10.7454M12.299 10.6335C12.5054 10.5805 12.7089 10.601 12.9766 10.7403ZM13.8661 12.724L13.8625 12.712C13.8631 12.7061 13.8627 12.7009 13.8605 12.7001L13.8553 12.6838L13.8526 12.6753C13.8178 12.5667 13.749 12.4744 13.6563 12.4112L13.6437 12.4035L13.6367 12.3992L13.6307 12.395L13.6234 12.3907L13.6173 12.3864L13.6096 12.3821L13.6031 12.3787L13.595 12.3744L13.5885 12.3702L13.5802 12.3659L13.5737 12.3625L13.5648 12.3582L13.5577 12.3548L13.5521 12.3514L13.546 12.3488L13.54 12.3462L13.534 12.3437L13.5265 12.3411L13.5205 12.3385C13.335 12.2591 13.0952 12.2411 12.8509 12.3044C12.6968 12.3437 12.2301 12.4608 12.117 12.4907L12.4339 13.724L13.1668 13.5334C13.4111 13.4701 13.6123 13.3394 13.737 13.1804L13.7411 13.1753L13.746 13.1693L13.75 13.1633L13.7541 13.1573L13.758 13.1522L13.762 13.1462L13.7668 13.1394L13.772 13.1308L13.7751 13.1248L13.7793 13.1189L13.7846 13.1112L13.7882 13.1052L13.793 13.0984L13.7968 13.0924L13.8016 13.0847L13.8053 13.0787L13.8097 13.0719L13.813 13.0659L13.8172 13.0582L13.8222 13.0496C13.8733 12.9496 13.8891 12.8351 13.8661 12.724Z" fill="#142144"/>
</svg>
