<svg width="24" height="24" viewBox="0 0 24 24" fill="none" xmlns="http://www.w3.org/2000/svg">
<path d="M5.82223 5.79822C5.12569 6.37961 4.40677 7.09612 4.11447 7.97007C3.7774 9.00021 4.2488 10.0527 4.69906 10.97C5.14808 11.9096 5.64187 12.8282 6.0685 13.7902C6.40558 14.5513 6.87698 15.4463 6.76504 16.298C6.67548 16.9029 6.47274 17.4843 6.3608 18.0892C6.27124 18.4921 6.65309 18.0892 6.78743 17.9777C7.57352 17.3058 8.42677 16.5447 8.74146 15.5145C8.89818 15.0001 8.80863 14.529 8.62952 14.0369C8.45041 13.567 8.24766 13.1195 8.04492 12.6485C7.61829 11.7076 7.16928 10.7679 6.71902 9.82705C6.53991 9.49111 6.35955 9.13285 6.20283 8.7746C6.04611 8.39403 5.95531 7.99114 5.93293 7.56595C5.91054 7.23001 5.91054 6.91638 5.95531 6.58043C5.9777 6.33375 6.04487 6.11061 6.06726 5.86392C6.09089 5.73128 5.97895 5.68541 5.82223 5.79822ZM16.1098 5.79822C15.4133 6.38085 14.6944 7.09736 14.4021 7.97007C14.065 9.00021 14.5364 10.0527 14.9867 10.97C15.4357 11.9109 15.9307 12.8282 16.3573 13.7914C16.6944 14.5526 17.1658 15.4476 17.0539 16.2992C16.9643 16.9042 16.7616 17.4855 16.6496 18.0905C16.5601 18.4934 16.9419 18.0905 17.0763 17.9789C17.8624 17.307 18.7156 16.5459 19.0303 15.5158C19.187 15.0013 19.0975 14.5302 18.9183 14.0381C18.7392 13.5683 18.5365 13.1208 18.3338 12.6497C17.9071 11.7088 17.4581 10.7692 17.0078 9.82829C16.8287 9.49235 16.6484 9.13409 16.4917 8.77584C16.3349 8.39527 16.2441 7.99238 16.2218 7.56719C16.1994 7.23124 16.1994 6.91762 16.2441 6.58167C16.2665 6.33499 16.3337 6.11185 16.3561 5.86516C16.3797 5.73128 16.2678 5.68541 16.1098 5.79822Z" fill="#142144"/>
<path d="M10.8086 4.09895C10.0225 4.74852 9.16922 5.53198 8.69657 6.44931C8.35949 7.09888 8.31472 7.77077 8.49383 8.44141C8.71896 9.24718 9.0324 10.0529 9.36947 10.8364C10.0212 12.3364 10.8745 13.7471 11.5039 15.2693C11.729 15.8061 11.9753 16.4111 12.02 17.016C12.0648 17.7548 11.8173 18.5383 11.6158 19.2325C11.571 19.4345 11.4367 19.7023 11.4591 19.9044C11.4815 20.0606 11.571 19.9936 11.6618 19.9267C12.0437 19.6354 12.4255 19.2994 12.7626 18.9635C13.683 18.0908 14.739 16.9255 14.6495 15.5607C14.6047 15.0003 14.3348 14.4636 14.1109 13.9491C13.8634 13.3454 13.5947 12.764 13.3248 12.1814C12.831 11.0843 12.3136 10.0096 11.775 8.93479C11.5959 8.55422 11.3708 8.19596 11.2364 7.81539C11.0337 7.30094 10.9441 6.76294 10.9218 6.22617C10.8994 5.82329 10.9218 5.3981 10.9665 4.99521C10.9889 4.72621 11.0785 4.48076 11.0785 4.21176C11.1456 3.96507 11.0113 3.94276 10.8086 4.09895Z" fill="#142144"/>
</svg>
