<svg width="24" height="24" viewBox="0 0 24 24" fill="none" xmlns="http://www.w3.org/2000/svg">
<path fill-rule="evenodd" clip-rule="evenodd" d="M10.064 19.7605C14.3507 20.8293 18.6919 18.2209 19.7605 13.9354C20.8292 9.64937 18.2209 5.30817 13.9344 4.23935C9.64898 3.17101 5.30776 5.77935 4.23965 10.0654C3.17051 14.3509 5.77906 18.6921 10.064 19.7605ZM13.7679 8.84178C14.8763 9.2236 15.6869 9.79585 15.5276 10.8603C15.4124 11.6396 14.9803 12.017 14.4068 12.1488C15.1943 12.559 15.5951 13.1879 15.2134 14.2777C14.7395 15.6317 13.6139 15.7454 12.117 15.4622L11.7537 16.9182L10.8759 16.6995L11.2344 15.263C11.0069 15.2069 10.7743 15.1468 10.5348 15.0819L10.175 16.5247L9.29817 16.306L9.66149 14.8475L9.31026 14.7562C9.21949 14.7328 9.12799 14.7088 9.03569 14.6859L7.8933 14.4012L8.32908 13.3964C8.32908 13.3964 8.59381 13.4667 8.78225 13.514C8.8884 13.5404 8.97032 13.5599 8.96714 13.5555C9.21571 13.6171 9.32595 13.4554 9.36947 13.347L9.94351 11.0458L10.0363 11.0693C10.0013 11.0551 9.96951 11.0458 9.94503 11.04L10.3546 9.39694C10.3653 9.21042 10.301 8.97556 9.94552 8.8867C9.95925 8.87742 9.30794 8.72801 9.30794 8.72801L9.54149 7.79053L10.7521 8.09277L10.7511 8.09716C10.9331 8.14257 11.1206 8.18554 11.3117 8.229L11.6715 6.78762L12.5488 7.00637L12.1962 8.41942C12.4318 8.47313 12.6688 8.52782 12.8996 8.58495L13.2496 7.18117L14.1275 7.39992L13.7679 8.84178ZM10.8201 14.0252C11.4152 14.1732 13.2506 14.7625 13.5219 13.6722C13.7769 12.6498 12.2585 12.309 11.5177 12.143C11.435 12.1244 11.3619 12.1083 11.3022 12.0932L10.8201 14.0252ZM11.6663 11.2465C12.2633 11.4057 13.5665 11.7533 13.7934 10.8447C14.0251 9.91499 12.7592 9.63521 12.1408 9.4985C12.0712 9.48287 12.0098 9.4692 11.9597 9.45651L11.5227 11.2089L11.6663 11.2465Z" fill="#142144"/>
</svg>
