<svg width="24" height="24" viewBox="0 0 24 24" fill="none" xmlns="http://www.w3.org/2000/svg">
<path d="M12.9304 11.3772C13.2501 11.5319 13.5194 11.7719 13.7076 12.0698C13.8958 12.3677 13.9954 12.7116 13.995 13.0625C13.995 14.0978 13.1451 14.9368 12.0975 14.9368C11.05 14.9368 10.1996 14.0978 10.1996 13.0626C10.1992 12.7116 10.2989 12.3676 10.4872 12.0696C10.6756 11.7717 10.9451 11.5318 11.2651 11.3773V9.0624H12.9303V11.3772H12.9304ZM12.0976 6C8.74865 6 6.02446 8.69136 6.02446 12C6.02446 15.3086 8.74906 17.9995 12.0976 17.9995C14.8304 17.9995 17.1468 16.2075 17.9068 13.7502H19.9999C19.1923 17.3266 15.9609 20 12.0976 20C7.62546 20 4 16.4183 4 12C4 7.58168 7.62546 4 12.0976 4C15.9609 4 19.1923 6.67336 20 10.2498H17.9069C17.1463 7.792 14.8304 6 12.0976 6Z" fill="#142144"/>
</svg>
