<svg width="24" height="24" viewBox="0 0 24 24" fill="none" xmlns="http://www.w3.org/2000/svg">
<path fill-rule="evenodd" clip-rule="evenodd" d="M12 21.666L4 17V7.66602L12 3L20 7.66602V17L12 21.666ZM5.979 7.78711L11.2761 4.68945C11.7234 5.02344 12.3328 5.02344 12.7795 4.68945L18.0764 7.78711C18.0659 7.88281 18.0659 7.97852 18.0764 8.07422L12.7791 11.1738C12.3325 10.8398 11.7231 10.8398 11.2766 11.1738L5.979 8.07422C5.98975 7.97852 5.98975 7.88281 5.979 7.78711ZM13.2822 12.0625L18.5852 8.92969C18.6616 8.98828 18.7439 9.03516 18.8306 9.07422V15.2695C18.3218 15.4961 18.0171 16.0293 18.0793 16.5898L12.7817 19.6875C12.749 19.6621 12.7148 19.6387 12.6799 19.6172C12.6338 19.5898 12.5859 19.5645 12.5366 19.543L12.5308 13.3809C13.0396 13.1562 13.3442 12.623 13.2822 12.0625ZM5.23047 9.10742C5.31714 9.07031 5.39941 9.02148 5.47559 8.96484L10.7727 12.0625C10.7107 12.6211 11.0154 13.1562 11.5239 13.3809V19.5781C11.4663 19.6035 11.4106 19.6328 11.3572 19.666L11.2788 19.7207L5.98169 16.623C6.04395 16.0645 5.73926 15.5293 5.23047 15.3047V9.10742Z" fill="#142144"/>
</svg>
